<?xml version="1.0" encoding="utf-8"?>
<!-- Generator: Adobe Illustrator 24.3.0, SVG Export Plug-In . SVG Version: 6.00 Build 0)  -->
<svg version="1.1" id="Layer_1" xmlns="http://www.w3.org/2000/svg" xmlns:xlink="http://www.w3.org/1999/xlink" x="0px" y="0px"
	 width="202.753px" height="29.481px" viewBox="0 0 202.753 29.481" style="enable-background:new 0 0 202.753 29.481;"
	 xml:space="preserve">
<path d="M34.151,20.008c0,6.371-4.337,7.867-12.972,7.867H1.377V1.011h20.647c6.678,0,11.13,1.075,11.13,6.87
	c0,3.262-1.88,4.951-4.797,5.833v0.115C31.81,14.673,34.151,16.477,34.151,20.008z M10.048,7.483v5.469h11.19
	c2.866,0,4.235-1.035,4.235-2.851c0-1.612-1.155-2.618-4.235-2.618H10.048z M26.462,18.278c0-1.769-1.158-2.851-4.525-2.851H10.048
	v5.993h11.888C25.195,21.42,26.462,20.198,26.462,18.278z"/>
<path d="M36.069,20.046V7.42h9.441v12.747c0,2.264,0.857,3.953,3.262,3.953s3.377-1.538,3.377-4.15V7.42h9.441v20.455H52.15v-2.533
	c-0.998,1.343-3.147,3.07-7.253,3.07C39.024,28.413,36.069,25.649,36.069,20.046z"/>
<path d="M117.659,15.249v12.626h-9.441V14.997c0-2.264-0.552-3.953-3.262-3.953c-2.032,0-3.377,1.773-3.377,4.416v12.415h-9.441
	V7.42h9.441v2.533c0.998-1.343,3.147-3.07,7.253-3.07C114.704,6.883,117.659,9.646,117.659,15.249z"/>
<polygon points="165.171,15.885 173.215,15.885 173.61,27.875 164.835,27.875 "/>
<polygon points="177.493,6.035 172.683,13.639 165.841,13.639 167.987,6.035 "/>
<path d="M201.377,16.164v11.712h-8.257v-3.542c-1.35,2.28-4.317,4.117-7.681,4.117c-5.795,0-9.891-1.996-9.891-6.217
	c0-5.114,3.626-7.111,17.572-5.861v-1.584c0-1.88-1.796-3.235-4.658-3.235c-2.291,0-3.07,0.725-3.358,2.083h-8.443
	c0.729-4.989,5.104-6.754,11.935-6.754C197.726,6.883,201.377,10.355,201.377,16.164z M193.12,18.635
	c-6.603-0.822-8.514,0.173-8.514,2.33c0,1.628,1.308,3.156,3.635,3.156c3.307,0,4.879-1.97,4.879-5.683V18.635z"/>
<path d="M72.489,19.35c0.404,2.069,1.957,3.459,4.759,3.459c1.957,0,3.316-0.823,3.991-2.039h8.635
	c-1.305,5.603-6.908,7.681-12.626,7.681c-6.754,0-13.739-2.878-13.739-10.784S70.417,6.883,77.056,6.883
	c6.179,0,13.662,2.95,13.125,12.467H72.489z M72.528,17.218L72.528,17.218c0,0,8.665,0,9.269,0c0-3.427-1.879-4.694-4.687-4.694
	C74.163,12.524,72.528,14.048,72.528,17.218z"/>
<path d="M163.059,14.462c0,8.479-6.725,13.432-17.308,13.432h-15.428V1.03h15.428C156.89,1.03,163.059,6.297,163.059,14.462z
	 M154.778,14.462c0-4.531-3.595-6.88-11.623-6.88h-4.469v13.799h4.469C151.947,21.381,154.778,18.993,154.778,14.462z"/>
</svg>
